<svg xmlns="http://www.w3.org/2000/svg" viewBox="0 0 342.44 443.48"><defs><style>.cls-1{fill:#5b5b5b;}</style></defs><g id="Layer_2" data-name="Layer 2"><g id="Calque_1" data-name="Calque 1"><path class="cls-1" d="M262,22c-8.18,2.15-15.51,4.67-21.36,11,34.07,7.36,59.13,26.71,77.14,55.66a119.27,119.27,0,0,1,17.39,49.58c-8.36-13.3-17.46-25.58-35.23-27.94a8.76,8.76,0,0,0,1.1,1.34c18.48,12.67,29.31,30.51,35.06,51.79a193.73,193.73,0,0,1-1.39,103.05c-.11.37-.28.73-.56,1.46a68.74,68.74,0,0,0-15.43-36.49c9.15,32.83.44,62.72-14.77,92.44-3.37-13.35-7.81-25.36-18-34.39a139.67,139.67,0,0,1-.25,55.14c-.91-.86-1.54-1.44-2.15-2-1.65-1.64-3.19-3.42-5-4.92-4.64-3.9-9.3-4.22-14.53-1.15-5,2.92-8.35,7.39-11.22,12.2a92,92,0,0,0-13.39,45.45c0,1.33.09,2.66.11,4s0,2.65,0,4.39c-21.37-.24-39.61-7.49-54.69-23.62a110.77,110.77,0,0,0-2.59,32.38c.6,10.76,1.93,21.47,2.93,32.21a6.54,6.54,0,0,1-1.05-.35c-27.48-13.3-51.9-30.61-71.32-54.44-17.42-21.38-28.49-45.64-32.38-73a212.7,212.7,0,0,1-2-23.1c-.25-7.64.24-15.29.41-23.37-.56.82-1.06,1.45-1.46,2.14-6.8,11.91-10.8,24.81-13.21,38.23-2.7,15-3.62,30.23-4.08,45.47-.05,1.9-.28,3.79-.49,6.39-.69-1.45-1.12-2.29-1.5-3.15-7.31-17-12.86-34.6-15.6-53-6-40.15,3.64-75.93,30.23-106.91a198.32,198.32,0,0,1,39.67-34.89,6.35,6.35,0,0,0,2-1.95c-3.16.8-6.3,1.68-9.49,2.39a98.11,98.11,0,0,1-26,2.29,3.42,3.42,0,0,0-2.41.82c-5.25,5.89-12.16,8.86-19.39,11.33-6,2-12,3.86-17.86,6.29-3.77,1.59-7.16,4.11-10.87,6.31C21.7,179.57,15,167.84,13.18,154.17a40,40,0,0,1,1.31-17.07,8.06,8.06,0,0,0,0-4.08,65.27,65.27,0,0,0-7.8-18A47.65,47.65,0,0,1,.36,84.3a2.84,2.84,0,0,1,2.25-2.73Q36.18,69.14,69.7,56.62c3.66-1.36,7.37-2.61,11-4.12A6.07,6.07,0,0,0,83.48,50c8-14.84,20.77-22.72,36.89-25.85,2.76-.53,5.62-.59,8.41-1a2.94,2.94,0,0,0,2.1-1.23C135.3,11,144.27,5.77,155,3.25A114,114,0,0,1,176.61.18c19.47-.75,38.76.75,57.43,6.9a89.45,89.45,0,0,1,25.71,13C260.4,20.61,261,21.14,262,22ZM170.81,87.76A114.64,114.64,0,0,1,169,119.6c-3.77,18.74-13.52,33.94-27.78,46.21-10.54,9.07-21.61,17.52-32.5,26.18C90,206.84,75.41,224.75,66.53,247.08c-1,2.43-1.88,4.88-2.81,7.32,12-23,29.33-39.77,54.67-48.68A147.09,147.09,0,0,0,101,285.85c1.72,27.9,15.83,69.74,25.4,77.31-.22-.69-.37-1.25-.58-1.77-6.43-15.88-9.08-32.49-9.18-49.51A186,186,0,0,1,122,268.14c6.78-28.87,17.64-56,34.74-80.36.88-1.25,1.78-2.47,2.67-3.71-11.15,37-11.42,73.14,6.72,108.12a10.63,10.63,0,0,0-.4-3.85c-4.77-18-5.27-36.23-.74-54.33,3.56-14.26,7.82-28.34,11.83-42.49,4.33-15.26,7.8-30.64,7.16-46.66-.07-1.58-.22-3.16-.33-4.74a28.48,28.48,0,0,1,4.12,5.15c7.26,11.3,10.68,23.9,12.49,37,.38,2.69.7,5.4,1,8.1l1,0c2.23-12.5,4.75-25,6.6-37.51a101.51,101.51,0,0,0-.47-31.12c-1.56-9.55-5.44-18.29-9.78-26.85-.47-.93-.84-1.91-1.33-3,9.26-2.44,18.13-1.17,27.64,1.1-13.49-20.78-29.53-37.6-51.65-48.07,5.73-10.48,16.05-13.08,26.66-16.4-1.38-.52-2-.84-2.7-1-6-1.5-11.89-3.15-17.9-4.41-9-1.89-18.1-2.79-27.11.22A29.42,29.42,0,0,0,140,30.8L156.4,42.07a3.08,3.08,0,0,1-1.72-.09c-4.94-1.45-9.85-3-14.83-4.35-9.39-2.47-18.77-2.53-28,.75-9.73,3.45-15.54,10.83-19.42,19.95A5.83,5.83,0,0,1,88.7,61.9q-30,10.93-59.93,22c-.87.32-1.69.75-3.06,1.37l20.84,7.87c-1,.74-1.6,1.26-2.27,1.74-6.44,4.59-12.84,9.25-19.38,13.7a4.24,4.24,0,0,0-2.06,4.78,35.16,35.16,0,0,0,6.22,15.36C37,139.51,48,145.46,60.9,148.14a6,6,0,0,0,3.37,0,72.17,72.17,0,0,0,11-5.25c7.77-5,13.33-12.24,18.72-19.58.5-.67,1-1.33,1.53-2,1.26,8.86-1.16,16.72-5.42,24.13,16.42-3.5,24.75-14.13,26.89-30.77,1.23,1.47,1.79,2.29,2.49,3,2.7,2.59,5.21,5.44,8.2,7.64,6.16,4.54,12.22,4.59,18.48.17a49.21,49.21,0,0,0,8.17-7.29c6.77-7.56,10.63-16.84,14.62-26Q169.87,90,170.81,87.76Zm48.55,19.61c1.13,3.77,2,7,3.09,10.22,5,14.81,8,30,6.68,45.62-.85,10.34-2.32,20.66-4.17,30.87-3.41,18.8-8.25,37.33-9.38,56.53A197.73,197.73,0,0,0,217,287.74c.65,5.08,1.42,10.15,2.22,15.78-1.85-1.5-3.38-2.63-4.78-3.89-9.84-8.93-15.67-20.31-18.84-32.92-2.91-11.58-4.8-23.42-7.15-35.15-.36-1.84-.73-3.68-1.09-5.53l-.68.08c-.85,6.67-1.64,13.34-2.57,20-2.45,17.75-1.43,35.32,4,52.35,4.71,14.8,10.5,29.25,15.82,43.85.28.79.54,1.6,1,3a127.33,127.33,0,0,1-37.18-26.86,107.82,107.82,0,0,1-23.54-38.25,3.34,3.34,0,0,0-.68,1.33c-.13.48-.22,1-.32,1.46a168.65,168.65,0,0,0-1.56,55.4,191.88,191.88,0,0,0,17,57.39,28.08,28.08,0,0,0,2.22,3.38l.74-.22c-1.5-22.23-4.25-44.5,1.68-66.92,16.47,19,35.17,33.91,59.56,41.15a10.55,10.55,0,0,0,0-1.47,86.83,86.83,0,0,1-.34-31.29c2.44-14.23,8.3-26.8,18.67-37.05A20,20,0,0,1,254,297.19c3.59-.26,7.21-.05,11.11-.05.43-32.78-6.7-64.43-16.92-95.58A233.49,233.49,0,0,1,278,235.29a171.63,171.63,0,0,1,21.22,39.18,2.81,2.81,0,0,0,.41-1.31c1-11.1.23-22.16-1.23-33.14a139.31,139.31,0,0,0-18.41-53.42c-8.26-13.87-16.67-27.66-25-41.5-.49-.8-.87-1.67-1.42-2.76,29.61,14.76,54.2,34.23,68.06,65.08-4.46-22.89-10.59-45-22.06-65.35-11.64-20.63-29-36-47-51.22,15.11-5.17,29.61-3.4,44.17.41-12.86-10.84-26-21.07-41.47-28s-32-9.39-48.9-9.63c30.19,21,49.91,49.93,63.91,83.28C255.29,124,240.08,111.69,219.36,107.37ZM30.54,173.92l22.27-8.72-27.53-14C24.84,159.42,27.13,166.88,30.54,173.92ZM14,90.27,11.41,105.4c.66-.17,1-.46,1.11-.81,1.05-4.1,4.09-5.67,7.91-6.31a28.61,28.61,0,0,0,3.12-.81c1.53-.45,3.05-.93,4.58-1.39l0-.54Z"/><path class="cls-1" d="M155.18,53c-5.77,1.18-11.36,2-16.8,3.5-5,1.32-9.35,4-12,8.67-.81,1.43-1.14,3.12-1.93,4.56-.38.69-1.34,1.57-2,1.54-12.21-.67-24,2.14-35.82,4.3a33.89,33.89,0,0,1-7.07.75l31.9-14.07-4.15-7.58C123.13,48.72,138.92,48.83,155.18,53Z"/></g></g></svg>